<svg width="512" height="512" xmlns="http://www.w3.org/2000/svg">

 <g>
  <title>background</title>
  <rect fill="none" id="canvas_background" height="402" width="582" y="-1" x="-1"/>
 </g>
 <g>
  <title>Layer 1</title>
  <path fill="#ffffff" id="svg_1" d="m244,84l11.1,12l12,-11.98c33.5,-32.65 79.9,-47.51 125.5,-39.92c68.9,11.48 119.4,71.1 119.4,141l0,5.8c0,41.5 -17.2,81.2 -47.6,109.5l-180.7,168.7c-7.5,7 -17.4,10.9 -27.7,10.9c-10.3,0 -20.2,-3.9 -27.7,-10.9l-180.71,-168.7c-30.36,-28.3 -47.59,-68 -47.59,-109.5l0,-5.8c0,-69.9 50.52,-129.52 119.4,-141c44.7,-7.59 92,7.27 124.6,39.9c-0.9,0 0,0.01 0,0l0,0zm11.1,79.9l-45,-46.8c-21.7,-20.82 -52.5,-30.7 -82.8,-25.66c-45.75,7.63 -79.3,47.26 -79.3,93.66l0,5.8c0,28.2 11.71,55.2 32.34,74.4l175.66,164l175.7,-164c20.6,-19.2 32.3,-46.2 32.3,-74.4l0,-5.8c0,-46.4 -33.6,-86.03 -79.3,-93.66c-30.3,-5.04 -61.1,4.84 -82.8,25.66l-46.8,46.8z"/>
 </g>
</svg>